<svg width="127" height="19" viewBox="0 0 127 19" fill="none" xmlns="http://www.w3.org/2000/svg">
<path d="M0.000625074 -0.000215769H2.50063V8.31978C2.50063 8.79978 2.52063 9.28645 2.56063 9.77978C2.61396 10.2731 2.74729 10.7198 2.96063 11.1198C3.18729 11.5065 3.52063 11.8265 3.96063 12.0798C4.41396 12.3331 5.04729 12.4598 5.86063 12.4598C6.67396 12.4598 7.30063 12.3331 7.74063 12.0798C8.19396 11.8265 8.52729 11.5065 8.74062 11.1198C8.96729 10.7198 9.10063 10.2731 9.14063 9.77978C9.19396 9.28645 9.22063 8.79978 9.22063 8.31978V-0.000215769H11.7206V9.13979C11.7206 10.0598 11.5806 10.8598 11.3006 11.5398C11.0206 12.2198 10.6206 12.7931 10.1006 13.2598C9.59396 13.7131 8.98063 14.0531 8.26063 14.2798C7.54063 14.5065 6.74063 14.6198 5.86063 14.6198C4.98063 14.6198 4.18063 14.5065 3.46063 14.2798C2.74063 14.0531 2.12063 13.7131 1.60063 13.2598C1.09396 12.7931 0.700625 12.2198 0.420625 11.5398C0.140625 10.8598 0.000625074 10.0598 0.000625074 9.13979V-0.000215769ZM14.2742 3.93978H16.4342V5.45978L16.4742 5.49978C16.8209 4.92645 17.2742 4.47978 17.8342 4.15978C18.3942 3.82645 19.0142 3.65978 19.6942 3.65978C20.8276 3.65978 21.7209 3.95312 22.3742 4.53978C23.0276 5.12645 23.3542 6.00645 23.3542 7.17978V14.2798H21.0742V7.77978C21.0476 6.96645 20.8742 6.37978 20.5542 6.01978C20.2342 5.64645 19.7342 5.45978 19.0542 5.45978C18.6676 5.45978 18.3209 5.53312 18.0142 5.67979C17.7076 5.81312 17.4476 6.00645 17.2342 6.25978C17.0209 6.49978 16.8542 6.78645 16.7342 7.11978C16.6142 7.45312 16.5542 7.80645 16.5542 8.17979V14.2798H14.2742V3.93978ZM25.8186 -0.000215769H28.0986V14.2798H25.8186V-0.000215769ZM35.3228 14.5598C34.4961 14.5598 33.7561 14.4265 33.1028 14.1598C32.4628 13.8798 31.9161 13.4998 31.4628 13.0198C31.0228 12.5398 30.6828 11.9665 30.4428 11.2998C30.2161 10.6331 30.1028 9.89978 30.1028 9.09979C30.1028 8.31312 30.2161 7.58645 30.4428 6.91978C30.6828 6.25312 31.0228 5.67978 31.4628 5.19978C31.9161 4.71978 32.4628 4.34645 33.1028 4.07978C33.7561 3.79978 34.4961 3.65978 35.3228 3.65978C36.1495 3.65978 36.8828 3.79978 37.5228 4.07978C38.1761 4.34645 38.7228 4.71978 39.1628 5.19978C39.6161 5.67978 39.9561 6.25312 40.1828 6.91978C40.4228 7.58645 40.5428 8.31312 40.5428 9.09979C40.5428 9.89978 40.4228 10.6331 40.1828 11.2998C39.9561 11.9665 39.6161 12.5398 39.1628 13.0198C38.7228 13.4998 38.1761 13.8798 37.5228 14.1598C36.8828 14.4265 36.1495 14.5598 35.3228 14.5598ZM35.3228 12.7598C35.8295 12.7598 36.2695 12.6531 36.6428 12.4398C37.0161 12.2265 37.3228 11.9465 37.5628 11.5998C37.8028 11.2531 37.9761 10.8665 38.0828 10.4398C38.2028 9.99979 38.2628 9.55312 38.2628 9.09979C38.2628 8.65978 38.2028 8.21978 38.0828 7.77978C37.9761 7.33978 37.8028 6.95312 37.5628 6.61978C37.3228 6.27312 37.0161 5.99312 36.6428 5.77978C36.2695 5.56645 35.8295 5.45978 35.3228 5.45978C34.8161 5.45978 34.3761 5.56645 34.0028 5.77978C33.6295 5.99312 33.3228 6.27312 33.0828 6.61978C32.8428 6.95312 32.6628 7.33978 32.5428 7.77978C32.4361 8.21978 32.3828 8.65978 32.3828 9.09979C32.3828 9.55312 32.4361 9.99979 32.5428 10.4398C32.6628 10.8665 32.8428 11.2531 33.0828 11.5998C33.3228 11.9465 33.6295 12.2265 34.0028 12.4398C34.3761 12.6531 34.8161 12.7598 35.3228 12.7598ZM49.4183 7.39978C49.3249 6.75978 49.0649 6.27978 48.6383 5.95978C48.2249 5.62645 47.6983 5.45978 47.0583 5.45978C46.7649 5.45978 46.4516 5.51312 46.1183 5.61978C45.7849 5.71312 45.4783 5.89978 45.1983 6.17978C44.9183 6.44645 44.6849 6.82645 44.4983 7.31978C44.3116 7.79978 44.2183 8.43312 44.2183 9.21978C44.2183 9.64645 44.2649 10.0731 44.3583 10.4998C44.4649 10.9265 44.6249 11.3065 44.8383 11.6398C45.0649 11.9731 45.3516 12.2465 45.6983 12.4598C46.0449 12.6598 46.4649 12.7598 46.9583 12.7598C47.6249 12.7598 48.1716 12.5531 48.5983 12.1398C49.0383 11.7265 49.3116 11.1465 49.4183 10.3998H51.6983C51.4849 11.7465 50.9716 12.7798 50.1583 13.4998C49.3583 14.2065 48.2916 14.5598 46.9583 14.5598C46.1449 14.5598 45.4249 14.4265 44.7983 14.1598C44.1849 13.8798 43.6649 13.5065 43.2383 13.0398C42.8116 12.5598 42.4849 11.9931 42.2583 11.3398C42.0449 10.6865 41.9383 9.97978 41.9383 9.21978C41.9383 8.44645 42.0449 7.71978 42.2583 7.03978C42.4716 6.35978 42.7916 5.77312 43.2183 5.27978C43.6449 4.77312 44.1716 4.37978 44.7983 4.09979C45.4383 3.80645 46.1849 3.65978 47.0383 3.65978C47.6383 3.65978 48.2049 3.73978 48.7383 3.89978C49.2849 4.04645 49.7649 4.27312 50.1783 4.57978C50.6049 4.88645 50.9516 5.27312 51.2183 5.73978C51.4849 6.20645 51.6449 6.75978 51.6983 7.39978H49.4183ZM53.6116 -0.000215769H55.8916V8.11978L60.0116 3.93978H62.8116L58.8516 7.73978L63.1916 14.2798H60.4116L57.2516 9.25978L55.8916 10.5798V14.2798H53.6116V-0.000215769ZM68.8202 -0.000215769H80.3802V2.15979H75.8402V14.2798H73.3402V2.15979H68.8202V-0.000215769ZM84.2291 14.5598C83.4024 14.5598 82.6624 14.4265 82.0091 14.1598C81.3691 13.8798 80.8224 13.4998 80.3691 13.0198C79.9291 12.5398 79.5891 11.9665 79.3491 11.2998C79.1224 10.6331 79.0091 9.89978 79.0091 9.09979C79.0091 8.31312 79.1224 7.58645 79.3491 6.91978C79.5891 6.25312 79.9291 5.67978 80.3691 5.19978C80.8224 4.71978 81.3691 4.34645 82.0091 4.07978C82.6624 3.79978 83.4024 3.65978 84.2291 3.65978C85.0557 3.65978 85.7891 3.79978 86.4291 4.07978C87.0824 4.34645 87.6291 4.71978 88.0691 5.19978C88.5224 5.67978 88.8624 6.25312 89.0891 6.91978C89.3291 7.58645 89.4491 8.31312 89.4491 9.09979C89.4491 9.89978 89.3291 10.6331 89.0891 11.2998C88.8624 11.9665 88.5224 12.5398 88.0691 13.0198C87.6291 13.4998 87.0824 13.8798 86.4291 14.1598C85.7891 14.4265 85.0557 14.5598 84.2291 14.5598ZM84.2291 12.7598C84.7357 12.7598 85.1757 12.6531 85.5491 12.4398C85.9224 12.2265 86.2291 11.9465 86.4691 11.5998C86.7091 11.2531 86.8824 10.8665 86.9891 10.4398C87.1091 9.99979 87.1691 9.55312 87.1691 9.09979C87.1691 8.65978 87.1091 8.21978 86.9891 7.77978C86.8824 7.33978 86.7091 6.95312 86.4691 6.61978C86.2291 6.27312 85.9224 5.99312 85.5491 5.77978C85.1757 5.56645 84.7357 5.45978 84.2291 5.45978C83.7224 5.45978 83.2824 5.56645 82.9091 5.77978C82.5357 5.99312 82.2291 6.27312 81.9891 6.61978C81.7491 6.95312 81.5691 7.33978 81.4491 7.77978C81.3424 8.21978 81.2891 8.65978 81.2891 9.09979C81.2891 9.55312 81.3424 9.99979 81.4491 10.4398C81.5691 10.8665 81.7491 11.2531 81.9891 11.5998C82.2291 11.9465 82.5357 12.2265 82.9091 12.4398C83.2824 12.6531 83.7224 12.7598 84.2291 12.7598ZM101.085 14.2798H98.9245V12.8798H98.8845C98.5779 13.4798 98.1312 13.9131 97.5445 14.1798C96.9579 14.4331 96.3379 14.5598 95.6845 14.5598C94.8712 14.5598 94.1579 14.4198 93.5445 14.1398C92.9445 13.8465 92.4445 13.4531 92.0445 12.9598C91.6445 12.4665 91.3445 11.8865 91.1445 11.2198C90.9445 10.5398 90.8445 9.81312 90.8445 9.03978C90.8445 8.10645 90.9712 7.29978 91.2245 6.61978C91.4779 5.93978 91.8112 5.37978 92.2245 4.93979C92.6512 4.49979 93.1312 4.17978 93.6645 3.97978C94.2112 3.76645 94.7645 3.65978 95.3245 3.65978C95.6445 3.65978 95.9712 3.69312 96.3045 3.75978C96.6379 3.81312 96.9579 3.90645 97.2645 4.03978C97.5712 4.17312 97.8512 4.34645 98.1045 4.55978C98.3712 4.75978 98.5912 4.99978 98.7645 5.27978H98.8045V-0.000215769H101.085V14.2798ZM93.1245 9.21978C93.1245 9.65978 93.1779 10.0931 93.2845 10.5198C93.4045 10.9465 93.5779 11.3265 93.8045 11.6598C94.0445 11.9931 94.3445 12.2598 94.7045 12.4598C95.0645 12.6598 95.4912 12.7598 95.9845 12.7598C96.4912 12.7598 96.9245 12.6531 97.2845 12.4398C97.6579 12.2265 97.9579 11.9465 98.1845 11.5998C98.4245 11.2531 98.5979 10.8665 98.7045 10.4398C98.8245 9.99979 98.8845 9.55312 98.8845 9.09979C98.8845 7.95312 98.6245 7.05978 98.1045 6.41979C97.5979 5.77978 96.9045 5.45978 96.0245 5.45978C95.4912 5.45978 95.0379 5.57312 94.6645 5.79978C94.3045 6.01312 94.0045 6.29978 93.7645 6.65978C93.5379 7.00645 93.3712 7.40645 93.2645 7.85978C93.1712 8.29978 93.1245 8.75312 93.1245 9.21978ZM112.231 11.9798C112.231 12.2598 112.264 12.4598 112.331 12.5798C112.411 12.6998 112.558 12.7598 112.771 12.7598C112.838 12.7598 112.918 12.7598 113.011 12.7598C113.104 12.7598 113.211 12.7465 113.331 12.7198V14.2998C113.251 14.3265 113.144 14.3531 113.011 14.3798C112.891 14.4198 112.764 14.4531 112.631 14.4798C112.498 14.5065 112.364 14.5265 112.231 14.5398C112.098 14.5531 111.984 14.5598 111.891 14.5598C111.424 14.5598 111.038 14.4665 110.731 14.2798C110.424 14.0931 110.224 13.7665 110.131 13.2998C109.678 13.7398 109.118 14.0598 108.451 14.2598C107.798 14.4598 107.164 14.5598 106.551 14.5598C106.084 14.5598 105.638 14.4931 105.211 14.3598C104.784 14.2398 104.404 14.0598 104.071 13.8198C103.751 13.5665 103.491 13.2531 103.291 12.8798C103.104 12.4931 103.011 12.0465 103.011 11.5398C103.011 10.8998 103.124 10.3798 103.351 9.97979C103.591 9.57979 103.898 9.26645 104.271 9.03978C104.658 8.81312 105.084 8.65312 105.551 8.55978C106.031 8.45312 106.511 8.37312 106.991 8.31978C107.404 8.23978 107.798 8.18645 108.171 8.15978C108.544 8.11978 108.871 8.05978 109.151 7.97978C109.444 7.89978 109.671 7.77978 109.831 7.61979C110.004 7.44645 110.091 7.19312 110.091 6.85978C110.091 6.56645 110.018 6.32645 109.871 6.13979C109.738 5.95312 109.564 5.81312 109.351 5.71978C109.151 5.61312 108.924 5.54645 108.671 5.51978C108.418 5.47978 108.178 5.45978 107.951 5.45978C107.311 5.45978 106.784 5.59312 106.371 5.85978C105.958 6.12645 105.724 6.53978 105.671 7.09978H103.391C103.431 6.43312 103.591 5.87978 103.871 5.43978C104.151 4.99978 104.504 4.64645 104.931 4.37978C105.371 4.11312 105.864 3.92645 106.411 3.81979C106.958 3.71312 107.518 3.65978 108.091 3.65978C108.598 3.65978 109.098 3.71312 109.591 3.81979C110.084 3.92645 110.524 4.09978 110.911 4.33978C111.311 4.57978 111.631 4.89312 111.871 5.27978C112.111 5.65312 112.231 6.11312 112.231 6.65978V11.9798ZM109.951 9.09979C109.604 9.32645 109.178 9.46645 108.671 9.51979C108.164 9.55978 107.658 9.62645 107.151 9.71978C106.911 9.75978 106.678 9.81978 106.451 9.89978C106.224 9.96645 106.024 10.0665 105.851 10.1998C105.678 10.3198 105.538 10.4865 105.431 10.6998C105.338 10.8998 105.291 11.1465 105.291 11.4398C105.291 11.6931 105.364 11.9065 105.511 12.0798C105.658 12.2531 105.831 12.3931 106.031 12.4998C106.244 12.5931 106.471 12.6598 106.711 12.6998C106.964 12.7398 107.191 12.7598 107.391 12.7598C107.644 12.7598 107.918 12.7265 108.211 12.6598C108.504 12.5931 108.778 12.4798 109.031 12.3198C109.298 12.1598 109.518 11.9598 109.691 11.7198C109.864 11.4665 109.951 11.1598 109.951 10.7998V9.09979ZM113.544 3.93978H116.044L118.744 11.6598H118.784L121.404 3.93978H123.784L119.764 14.8398C119.578 15.3065 119.391 15.7531 119.204 16.1798C119.031 16.6065 118.811 16.9798 118.544 17.2998C118.291 17.6331 117.971 17.8931 117.584 18.0798C117.198 18.2798 116.704 18.3798 116.104 18.3798C115.571 18.3798 115.044 18.3398 114.524 18.2598V16.3398C114.711 16.3665 114.891 16.3931 115.064 16.4198C115.238 16.4598 115.418 16.4798 115.604 16.4798C115.871 16.4798 116.091 16.4465 116.264 16.3798C116.438 16.3131 116.578 16.2131 116.684 16.0798C116.804 15.9598 116.904 15.8131 116.984 15.6398C117.064 15.4665 117.138 15.2665 117.204 15.0398L117.464 14.2398L113.544 3.93978ZM123.4 11.5798H126.18V14.2798H123.4V11.5798Z" fill="#F9FAFB"/>
</svg>
