<svg width="96" height="32" viewBox="0 0 96 32" fill="none" xmlns="http://www.w3.org/2000/svg">
<g clip-path="url(#clip0_4469_5206)">
<path d="M48.6307 22.8319L52.0479 11.2896H53.9921L50.4849 22.8319H48.6307ZM41.6419 22.8319L38.1816 11.2896H40.1259L43.4961 22.8319H41.6419ZM41.8805 22.8319L45.1326 11.2896H46.8993L43.6638 22.8319H41.8805ZM48.463 22.8319L45.2744 11.2896H47.0412L50.3172 22.8319H48.463Z" fill="white"/>
<path d="M54.4146 22.831L54.4004 11.1382H56.2433L56.2574 22.831H54.4146ZM60.0159 22.831V18.6098L61.8585 18.1151V22.831H60.0159ZM60.0159 18.6098C60.0159 17.9526 59.9393 17.4456 59.7862 17.0888C59.633 16.732 59.4218 16.4813 59.1524 16.3369C58.8831 16.1924 58.5717 16.1179 58.2182 16.1133C57.5928 16.1038 57.1097 16.3085 56.7688 16.7272C56.4279 17.146 56.2574 17.7467 56.2574 18.5294H55.5614C55.5614 17.6548 55.6887 16.9089 55.9435 16.2918C56.1982 15.6747 56.5622 15.2032 57.0354 14.8773C57.5087 14.5515 58.0692 14.3886 58.7169 14.3886C59.7171 14.3886 60.4923 14.694 61.0425 15.3049C61.5927 15.9158 61.8647 16.8525 61.8585 18.1151L60.0159 18.6098Z" fill="white"/>
<path d="M63.085 22.8314L63.1015 14.5869H64.9343L64.9178 22.8314H63.085ZM64.0097 13.0204C63.7125 13.0204 63.4566 12.9132 63.2419 12.6989C63.0272 12.4845 62.9199 12.2289 62.9199 11.9321C62.9199 11.6353 63.0272 11.3825 63.2419 11.1736C63.4566 10.9648 63.7125 10.8604 64.0097 10.8604C64.3069 10.8604 64.5628 10.9648 64.7775 11.1736C64.9921 11.3825 65.0995 11.6353 65.0995 11.9321C65.0995 12.2289 64.9921 12.4845 64.7775 12.6989C64.5628 12.9132 64.3069 13.0204 64.0097 13.0204Z" fill="white"/>
<path d="M69.343 23.029C68.7866 23.029 68.2787 22.9454 67.8195 22.7781C67.3603 22.6109 66.9647 22.3769 66.6327 22.0762C66.3008 21.7754 66.0482 21.4224 65.875 21.017L67.4648 20.309C67.6361 20.6055 67.8828 20.8557 68.2048 21.0597C68.5269 21.2636 68.8892 21.3656 69.2916 21.3656C69.7092 21.3656 70.0467 21.2959 70.3041 21.1565C70.5615 21.0172 70.6902 20.8182 70.6902 20.5597C70.6902 20.3059 70.5909 20.1096 70.3924 19.971C70.1938 19.8324 69.9172 19.7177 69.5625 19.6268L68.7891 19.4243C68.0042 19.2185 67.3912 18.8984 66.9499 18.4641C66.5087 18.0297 66.288 17.5328 66.288 16.9733C66.288 16.1518 66.5562 15.5156 67.0926 15.0649C67.629 14.6141 68.3996 14.3887 69.4044 14.3887C69.9092 14.3887 70.3752 14.4633 70.8023 14.6126C71.2295 14.7618 71.5957 14.9707 71.9009 15.2393C72.2061 15.5078 72.4208 15.8219 72.545 16.1816L71.0024 16.8798C70.8973 16.6009 70.6899 16.3912 70.3802 16.2508C70.0706 16.1104 69.7313 16.0402 69.3623 16.0402C68.9918 16.0402 68.7019 16.1185 68.4924 16.2753C68.2829 16.432 68.1781 16.6491 68.1781 16.9264C68.1781 17.0973 68.2716 17.2497 68.4584 17.3836C68.6453 17.5175 68.9138 17.6283 69.2638 17.7161L70.2341 17.9568C70.7735 18.0887 71.2153 18.294 71.5595 18.5728C71.9038 18.8515 72.158 19.1642 72.3223 19.5106C72.4866 19.857 72.5687 20.2068 72.5687 20.56C72.5687 21.0546 72.4283 21.4885 72.1474 21.8616C71.8665 22.2346 71.485 22.5225 71.0029 22.7251C70.5208 22.9277 69.9675 23.029 69.343 23.029Z" fill="white"/>
<path d="M73.3496 26.1289V14.5865H75.0839L75.1925 16.1035V26.1289H73.3496ZM77.8003 23.029C77.1114 23.029 76.5174 22.8508 76.0183 22.4943C75.5192 22.1379 75.1372 21.6339 74.8724 20.9821C74.6076 20.3304 74.4752 19.5727 74.4752 18.7091C74.4752 17.8341 74.6076 17.0735 74.8724 16.4273C75.1372 15.781 75.5192 15.2797 76.0183 14.9233C76.5174 14.5669 77.1114 14.3887 77.8003 14.3887C78.5505 14.3887 79.2052 14.5669 79.7641 14.9233C80.3231 15.2797 80.7575 15.781 81.0673 16.4273C81.377 17.0735 81.5319 17.8341 81.5319 18.7091C81.5319 19.5727 81.377 20.3304 81.0673 20.9821C80.7575 21.6339 80.3231 22.1379 79.7641 22.4943C79.2052 22.8508 78.5505 23.029 77.8003 23.029ZM77.3465 21.3445C77.7902 21.3445 78.1828 21.2319 78.5241 21.0067C78.8654 20.7815 79.1355 20.4708 79.3342 20.0746C79.5329 19.6783 79.6323 19.223 79.6323 18.7086C79.6323 18.1941 79.5362 17.739 79.3439 17.3433C79.1516 16.9476 78.8845 16.6381 78.5425 16.415C78.2006 16.1919 77.8074 16.0803 77.363 16.0803C76.9421 16.0803 76.5672 16.192 76.2383 16.4153C75.9093 16.6386 75.6528 16.9483 75.4687 17.3443C75.2845 17.7404 75.1925 18.1955 75.1925 18.7096C75.1925 19.2237 75.2844 19.6794 75.4683 20.0766C75.6521 20.4739 75.906 20.7845 76.23 21.0085C76.554 21.2325 76.9261 21.3445 77.3465 21.3445Z" fill="white"/>
<path d="M86.1408 23.029C85.3324 23.029 84.6169 22.8448 83.9941 22.4766C83.3714 22.1083 82.8827 21.5999 82.5281 20.9513C82.1734 20.3028 81.9961 19.5553 81.9961 18.7088C81.9961 17.8624 82.1766 17.1149 82.5375 16.4663C82.8984 15.8177 83.3946 15.3093 84.0261 14.9411C84.6576 14.5728 85.3823 14.3887 86.2001 14.3887C86.9344 14.3887 87.5976 14.5783 88.1899 14.9575C88.7822 15.3368 89.253 15.8826 89.6023 16.5949C89.9516 17.3072 90.1263 18.1606 90.1263 19.155H88.2597C88.2676 18.439 88.1863 17.8506 88.0158 17.3898C87.8452 16.9291 87.6013 16.587 87.284 16.3635C86.9666 16.14 86.5857 16.0283 86.141 16.0283C85.6839 16.0283 85.2908 16.1326 84.9618 16.3412C84.6327 16.5498 84.381 16.8545 84.2067 17.2553C84.0324 17.6561 83.9453 18.1563 83.9453 18.756C83.9453 19.3006 84.0497 19.7635 84.2587 20.1447C84.4677 20.5258 84.7521 20.8187 85.1119 21.0233C85.4717 21.228 85.8699 21.3303 86.3064 21.3303C86.7951 21.3303 87.1992 21.219 87.5187 20.9963C87.8383 20.7736 88.0852 20.4858 88.2594 20.1328L89.9607 20.8449C89.728 21.2912 89.4338 21.6788 89.0783 22.0078C88.7228 22.3368 88.2997 22.5892 87.809 22.7651C87.3183 22.941 86.7622 23.029 86.1408 23.029ZM83.2056 19.155L83.2174 17.6811H89.1557V19.155H83.2056Z" fill="white"/>
<path d="M92.0999 18.448C92.0999 17.5576 92.2725 16.8257 92.6177 16.2525C92.9629 15.6792 93.406 15.2528 93.947 14.9732C94.4881 14.6935 95.0558 14.5537 95.6502 14.5537V16.3186C95.1516 16.3186 94.6794 16.3872 94.2335 16.5245C93.7877 16.6619 93.4253 16.885 93.1462 17.194C92.8672 17.503 92.7276 17.9116 92.7276 18.4199L92.0999 18.448ZM90.8848 22.8312V14.5867H92.7276V22.8312H90.8848Z" fill="white"/>
<path d="M28.1201 25.3878C29.0602 24.1633 29.8368 22.8571 30.409 21.4286C31.1038 19.6327 31.4717 17.6735 31.4717 15.7143C31.4717 7.06122 24.4008 0 15.7358 0C7.07091 0 0 7.06122 0 15.7143C0 24.3673 7.07091 31.4286 15.7358 31.4286C17.4933 31.4286 19.2509 31.1429 20.9266 30.5306L29.2237 32C29.2646 32 29.3463 32 29.3872 32C29.7142 32 30.0003 31.8776 30.2046 31.6327C30.4499 31.3469 30.4907 30.9388 30.3272 30.6122L28.1201 25.3878Z" fill="url(#paint0_linear_4469_5206)"/>
<path d="M28.1201 25.3878C29.0602 24.1633 29.8368 22.8571 30.409 21.4286C31.1038 19.6327 31.4717 17.6735 31.4717 15.7143C31.4717 7.06122 24.4008 0 15.7358 0C7.07091 0 0 7.06122 0 15.7143C0 24.3673 7.07091 31.4286 15.7358 31.4286C17.4933 31.4286 19.2509 31.1429 20.9266 30.5306L29.2237 32C29.2646 32 29.3463 32 29.3872 32C29.7142 32 30.0003 31.8776 30.2046 31.6327C30.4499 31.3469 30.4907 30.9388 30.3272 30.6122L28.1201 25.3878Z" fill="#9780FF"/>
<path opacity="0.404823" fill-rule="evenodd" clip-rule="evenodd" d="M16.297 14.4182L13.8518 13.6411C14.1795 14.2323 14.2039 15.0134 13.9251 15.9844L13.8693 16.1764C13.6762 16.8318 13.4063 17.6365 12.9096 18.4573L12.8478 18.5562C12.6913 18.7993 12.449 19.1294 12.1211 19.5467L15.3327 20.943L15.2418 20.3608C15.1429 19.7081 15.0802 19.2208 15.0537 18.8991C14.9535 17.6817 15.0772 16.8165 15.2523 16.2065C15.5162 15.2876 15.8644 14.6915 16.297 14.4182Z" fill="white"/>
<path fill-rule="evenodd" clip-rule="evenodd" d="M15.7717 10.2363C16.9857 10.2363 17.9776 11.1856 18.0438 12.3814C18.0466 12.3871 18.0478 12.3936 18.0478 12.4009L18.0468 12.4598L18.0473 12.5088C18.0473 12.6547 18.0336 12.7973 18.0073 12.9355L17.9805 13.1602C17.9335 13.5389 17.878 13.9227 17.8702 14.072C17.8605 14.2594 17.8839 14.5437 17.9034 14.6943C17.9989 15.433 18.1924 16.0617 18.4837 16.5802L18.4894 16.5777L18.6063 16.7917C19.0095 17.5208 19.3506 18.0386 19.6295 18.3451L19.7025 18.4225C19.7756 18.496 19.8338 18.5409 19.9975 18.6805C20.1703 18.8278 20.5997 19.0606 20.9179 19.2072C20.9609 19.2233 21.0035 19.2409 21.0453 19.2597L21.1222 19.2956L21.1269 19.2984C21.8725 19.6716 22.3844 20.4418 22.3844 21.3315C22.3844 22.5865 21.3656 23.604 20.1088 23.604C18.9387 23.604 17.9749 22.7221 17.8474 21.5877L17.8412 21.5916L17.7903 20.8369C17.7526 20.2591 17.7328 19.898 17.7311 19.7536L17.731 19.7344C17.7309 19.5468 17.7145 19.2635 17.6984 19.113C17.6229 18.4112 17.424 17.7686 17.1017 17.1852L17.1333 17.2388L17.0055 17.0265C16.3357 15.9219 15.8548 15.2622 15.5629 15.0473C15.1935 14.7754 14.5693 14.5167 14.328 14.2658C13.8202 13.849 13.4961 13.2167 13.4961 12.5088C13.4961 11.2538 14.5149 10.2363 15.7717 10.2363Z" fill="white"/>
<path fill-rule="evenodd" clip-rule="evenodd" d="M8.81272 10.2363C10.0267 10.2363 11.0187 11.1856 11.0848 12.3814C11.0876 12.3871 11.0888 12.3936 11.0888 12.4009L11.0878 12.4598L11.0883 12.5088C11.0883 12.6547 11.0746 12.7973 11.0483 12.9355L11.0215 13.1602C10.9745 13.5389 10.919 13.9227 10.9112 14.072C10.9015 14.2594 10.9249 14.5437 10.9444 14.6943C11.0399 15.433 11.2334 16.0617 11.5248 16.5802L11.5304 16.5777L11.6473 16.7917C12.0505 17.5208 12.3916 18.0386 12.6706 18.3451L12.7435 18.4225C12.8166 18.496 12.8748 18.5409 13.0385 18.6805C13.2113 18.8278 13.6408 19.0606 13.9589 19.2072C14.002 19.2233 14.0445 19.2409 14.0863 19.2597L14.1632 19.2956L14.168 19.2984C14.9135 19.6716 15.4254 20.4418 15.4254 21.3315C15.4254 22.5865 14.4066 23.604 13.1498 23.604C11.9797 23.604 11.0159 22.7221 10.8885 21.5877L10.8822 21.5916L10.8313 20.8369C10.7936 20.2591 10.7739 19.898 10.7721 19.7536L10.772 19.7344C10.7719 19.5468 10.7556 19.2635 10.7394 19.113C10.6639 18.4112 10.465 17.7686 10.1428 17.1852L10.1743 17.2388L10.0465 17.0265C9.37668 15.9219 8.89583 15.2622 8.60396 15.0473C8.23456 14.7754 7.61036 14.5167 7.36899 14.2658C6.86123 13.849 6.53711 13.2167 6.53711 12.5088C6.53711 11.2538 7.55594 10.2363 8.81272 10.2363Z" fill="white"/>
<path d="M22.7346 14.7813C23.9914 14.7813 25.0102 13.7639 25.0102 12.5088C25.0102 11.2538 23.9914 10.2363 22.7346 10.2363C21.4778 10.2363 20.459 11.2538 20.459 12.5088C20.459 13.7639 21.4778 14.7813 22.7346 14.7813Z" fill="white"/>
</g>
<defs>
<linearGradient id="paint0_linear_4469_5206" x1="1283.46" y1="1600" x2="848.504" y2="3027.04" gradientUnits="userSpaceOnUse">
<stop stop-color="#625EB1"/>
<stop offset="0.561267" stop-color="#1D8FE1"/>
<stop offset="1" stop-color="#22E1FF"/>
</linearGradient>
<clipPath id="clip0_4469_5206">
<rect width="95.6522" height="32" fill="white"/>
</clipPath>
</defs>
</svg>
