<svg width="162" height="48" viewBox="0 0 162 48" fill="none" xmlns="http://www.w3.org/2000/svg">
<rect width="162" height="48" rx="8" fill="white"/>
<path d="M100.711 23.0414V25.7906H98.9877V27.5936H100.711V33.7195C100.711 35.8113 101.657 36.6481 104.038 36.6481C104.456 36.6481 104.855 36.5983 105.203 36.5385V34.7555C104.904 34.7854 104.715 34.8053 104.386 34.8053C103.321 34.8053 102.852 34.3072 102.852 33.1717V27.5936H105.203V25.7906H102.852V23.0414H100.711Z" fill="#040813"/>
<path d="M111.268 36.7975C114.435 36.7975 116.378 34.6758 116.378 31.1596C116.378 27.6633 114.426 25.5317 111.268 25.5317C108.1 25.5317 106.148 27.6633 106.148 31.1596C106.148 34.6758 108.09 36.7975 111.268 36.7975ZM111.268 34.8949C109.405 34.8949 108.359 33.5303 108.359 31.1596C108.359 28.8088 109.405 27.4342 111.268 27.4342C113.121 27.4342 114.176 28.8088 114.176 31.1596C114.176 33.5203 113.121 34.8949 111.268 34.8949Z" fill="#040813"/>
<path d="M118.04 36.5883H120.181V30.1834C120.181 28.6594 121.327 27.6334 122.95 27.6334C123.329 27.6334 123.966 27.7031 124.146 27.7629V25.6512C123.917 25.5914 123.508 25.5615 123.19 25.5615C121.775 25.5615 120.57 26.3385 120.261 27.4043H120.102V25.7408H118.04V36.5883Z" fill="#040813"/>
<path d="M129.463 27.3545C131.047 27.3545 132.083 28.4602 132.133 30.1635H126.654C126.774 28.4701 127.88 27.3545 129.463 27.3545ZM132.123 33.6598C131.724 34.5065 130.838 34.9746 129.543 34.9746C127.83 34.9746 126.724 33.7694 126.654 31.8668V31.7473H134.314V31.0002C134.314 27.5936 132.491 25.5317 129.473 25.5317C126.415 25.5317 124.473 27.733 124.473 31.1994C124.473 34.6658 126.375 36.7975 129.483 36.7975C131.964 36.7975 133.697 35.6022 134.185 33.6598H132.123Z" fill="#040813"/>
<path d="M86.6666 32.5825C86.8318 35.2461 89.0515 36.9496 92.3552 36.9496C95.8861 36.9496 98.0955 35.1636 98.0955 32.3141C98.0955 30.0737 96.836 28.8348 93.78 28.1224L92.1384 27.7198C90.1975 27.2655 89.4128 26.6564 89.4128 25.593C89.4128 24.2509 90.6311 23.3733 92.4585 23.3733C94.193 23.3733 95.3906 24.2302 95.6074 25.6033H97.858C97.7238 23.0945 95.5145 21.3291 92.4895 21.3291C89.2373 21.3291 87.0692 23.0945 87.0692 25.7479C87.0692 27.9366 88.2978 29.2375 90.9924 29.8672L92.9127 30.3318C94.8847 30.7964 95.7519 31.4778 95.7519 32.6135C95.7519 33.935 94.3891 34.8951 92.5308 34.8951C90.5382 34.8951 89.1547 33.9969 88.9586 32.5825H86.6666Z" fill="#040813"/>
<path d="M64.4818 25.5615C63.0076 25.5615 61.7326 26.2986 61.0752 27.5338H60.9158V25.7408H58.8539V40.1942H60.9955V34.9447H61.1648C61.7326 36.0903 62.9578 36.7676 64.5017 36.7676C67.241 36.7676 68.9841 34.6061 68.9841 31.1596C68.9841 27.7131 67.241 25.5615 64.4818 25.5615ZM63.8742 34.8451C62.0812 34.8451 60.9556 33.4307 60.9556 31.1695C60.9556 28.8985 62.0812 27.484 63.8841 27.484C65.697 27.484 66.7828 28.8686 66.7828 31.1596C66.7828 33.4606 65.697 34.8451 63.8742 34.8451Z" fill="#040813"/>
<path d="M76.478 25.5615C75.0037 25.5615 73.7287 26.2986 73.0713 27.5338H72.9119V25.7408H70.85V40.1942H72.9916V34.9447H73.161C73.7287 36.0903 74.9539 36.7676 76.4979 36.7676C79.2371 36.7676 80.9803 34.6061 80.9803 31.1596C80.9803 27.7131 79.2371 25.5615 76.478 25.5615ZM75.8703 34.8451C74.0774 34.8451 72.9518 33.4307 72.9518 31.1695C72.9518 28.8985 74.0774 27.484 75.8803 27.484C77.6932 27.484 78.7789 28.8686 78.7789 31.1596C78.7789 33.4606 77.6932 34.8451 75.8703 34.8451Z" fill="#040813"/>
<path d="M55.0115 36.5883H57.4686L52.0897 21.6904H49.6016L44.2227 36.5883H46.5972L47.9703 32.6341H53.6487L55.0115 36.5883ZM50.7269 24.3954H50.9024L53.0602 30.6932H48.5588L50.7269 24.3954Z" fill="#040813"/>
<path d="M45.6621 10.4522V17.6391H48.2569C50.3985 17.6391 51.6387 16.3192 51.6387 14.0232C51.6387 11.7621 50.3886 10.4522 48.2569 10.4522H45.6621ZM46.7777 11.4683H48.1324C49.6216 11.4683 50.5031 12.4146 50.5031 14.0382C50.5031 15.6867 49.6365 16.623 48.1324 16.623H46.7777V11.4683Z" fill="#040813"/>
<path d="M55.4368 17.7437C57.0206 17.7437 57.9918 16.6828 57.9918 14.9247C57.9918 13.1766 57.0156 12.1107 55.4368 12.1107C53.853 12.1107 52.8768 13.1766 52.8768 14.9247C52.8768 16.6828 53.848 17.7437 55.4368 17.7437ZM55.4368 16.7924C54.5054 16.7924 53.9825 16.1101 53.9825 14.9247C53.9825 13.7493 54.5054 13.062 55.4368 13.062C56.3631 13.062 56.8911 13.7493 56.8911 14.9247C56.8911 16.1051 56.3631 16.7924 55.4368 16.7924Z" fill="#040813"/>
<path d="M66.2623 12.2153H65.1915L64.2253 16.3541H64.1406L63.025 12.2153H61.999L60.8834 16.3541H60.8037L59.8325 12.2153H58.7468L60.2409 17.6391H61.3416L62.4572 13.6447H62.5419L63.6625 17.6391H64.7732L66.2623 12.2153Z" fill="#040813"/>
<path d="M67.4955 17.6391H68.5663V14.4665C68.5663 13.6198 69.0693 13.0919 69.8612 13.0919C70.6531 13.0919 71.0316 13.5252 71.0316 14.3968V17.6391H72.1024V14.1278C72.1024 12.8379 71.435 12.1107 70.2248 12.1107C69.408 12.1107 68.8701 12.4743 68.6061 13.077H68.5264V12.2153H67.4955V17.6391Z" fill="#040813"/>
<path d="M73.7888 17.6391H74.8596V10.0986H73.7888V17.6391Z" fill="#040813"/>
<path d="M78.8868 17.7437C80.4706 17.7437 81.4418 16.6828 81.4418 14.9247C81.4418 13.1766 80.4656 12.1107 78.8868 12.1107C77.303 12.1107 76.3269 13.1766 76.3269 14.9247C76.3269 16.6828 77.298 17.7437 78.8868 17.7437ZM78.8868 16.7924C77.9555 16.7924 77.4325 16.1101 77.4325 14.9247C77.4325 13.7493 77.9555 13.062 78.8868 13.062C79.8132 13.062 80.3411 13.7493 80.3411 14.9247C80.3411 16.1051 79.8132 16.7924 78.8868 16.7924Z" fill="#040813"/>
<path d="M84.6323 16.8272C84.0496 16.8272 83.6262 16.5434 83.6262 16.0553C83.6262 15.5771 83.9649 15.3231 84.712 15.2733L86.0368 15.1887V15.6419C86.0368 16.3143 85.4391 16.8272 84.6323 16.8272ZM84.3584 17.7287C85.0706 17.7287 85.6632 17.4199 85.987 16.8771H86.0716V17.6391H87.1026V13.9336C87.1026 12.7881 86.3356 12.1107 84.9759 12.1107C83.7458 12.1107 82.8692 12.7084 82.7596 13.6397H83.7956C83.9151 13.2563 84.3285 13.0371 84.9261 13.0371C85.6583 13.0371 86.0368 13.3608 86.0368 13.9336V14.4018L84.5675 14.4864C83.2776 14.5661 82.5504 15.1289 82.5504 16.1051C82.5504 17.0962 83.3125 17.7287 84.3584 17.7287Z" fill="#040813"/>
<path d="M90.7363 17.7287C91.4834 17.7287 92.1159 17.3751 92.4397 16.7824H92.5243V17.6391H93.5503V10.0986H92.4795V13.077H92.3998C92.106 12.4793 91.4784 12.1257 90.7363 12.1257C89.3667 12.1257 88.4852 13.2114 88.4852 14.9247C88.4852 16.643 89.3568 17.7287 90.7363 17.7287ZM91.0401 13.0869C91.9366 13.0869 92.4994 13.7991 92.4994 14.9297C92.4994 16.0652 91.9416 16.7675 91.0401 16.7675C90.1337 16.7675 89.5908 16.0752 89.5908 14.9247C89.5908 13.7842 90.1387 13.0869 91.0401 13.0869Z" fill="#040813"/>
<path d="M100.494 17.7437C102.078 17.7437 103.049 16.6828 103.049 14.9247C103.049 13.1766 102.073 12.1107 100.494 12.1107C98.9103 12.1107 97.9341 13.1766 97.9341 14.9247C97.9341 16.6828 98.9053 17.7437 100.494 17.7437ZM100.494 16.7924C99.5627 16.7924 99.0398 16.1101 99.0398 14.9247C99.0398 13.7493 99.5627 13.062 100.494 13.062C101.42 13.062 101.948 13.7493 101.948 14.9247C101.948 16.1051 101.42 16.7924 100.494 16.7924Z" fill="#040813"/>
<path d="M104.466 17.6391H105.537V14.4665C105.537 13.6198 106.04 13.0919 106.832 13.0919C107.624 13.0919 108.003 13.5252 108.003 14.3968V17.6391H109.073V14.1278C109.073 12.8379 108.406 12.1107 107.196 12.1107C106.379 12.1107 105.841 12.4743 105.577 13.077H105.497V12.2153H104.466V17.6391Z" fill="#040813"/>
<path d="M114.005 10.8656V12.2402H113.143V13.1417H114.005V16.2047C114.005 17.2506 114.478 17.6689 115.669 17.6689C115.878 17.6689 116.077 17.644 116.251 17.6142V16.7227C116.102 16.7376 116.007 16.7476 115.843 16.7476C115.31 16.7476 115.076 16.4985 115.076 15.9308V13.1417H116.251V12.2402H115.076V10.8656H114.005Z" fill="#040813"/>
<path d="M117.689 17.6391H118.759V14.4715C118.759 13.6497 119.248 13.0969 120.124 13.0969C120.881 13.0969 121.285 13.5352 121.285 14.4018V17.6391H122.355V14.1378C122.355 12.8479 121.643 12.1157 120.488 12.1157C119.671 12.1157 119.098 12.4793 118.834 13.0869H118.749V10.0986H117.689V17.6391Z" fill="#040813"/>
<path d="M126.218 13.0222C127.01 13.0222 127.528 13.575 127.553 14.4267H124.814C124.873 13.58 125.426 13.0222 126.218 13.0222ZM127.548 16.1748C127.349 16.5981 126.905 16.8322 126.258 16.8322C125.401 16.8322 124.849 16.2296 124.814 15.2783V15.2186H128.644V14.845C128.644 13.1417 127.732 12.1107 126.223 12.1107C124.694 12.1107 123.723 13.2114 123.723 14.9446C123.723 16.6778 124.674 17.7437 126.228 17.7437C127.468 17.7437 128.335 17.146 128.579 16.1748H127.548Z" fill="#040813"/>
<path d="M32.6025 24.3608C32.6285 22.3436 33.7118 20.4349 35.4303 19.3783C34.3462 17.8299 32.5302 16.8482 30.641 16.7891C28.6259 16.5776 26.6723 17.9949 25.6455 17.9949C24.5988 17.9949 23.0178 16.8101 21.3153 16.8451C19.0962 16.9168 17.0274 18.1785 15.9478 20.1186C13.627 24.1367 15.3581 30.0419 17.5812 33.2899C18.6935 34.8803 19.9934 36.6568 21.6944 36.5938C23.3588 36.5248 23.9805 35.5324 25.9896 35.5324C27.9802 35.5324 28.5634 36.5938 30.2988 36.5538C32.0849 36.5248 33.2102 34.9563 34.2835 33.3508C35.0826 32.2176 35.6976 30.9651 36.1056 29.6398C34.0066 28.752 32.6049 26.6397 32.6025 24.3608Z" fill="#040813"/>
<path d="M29.3245 14.6531C30.2983 13.484 30.7781 11.9814 30.6619 10.4644C29.1741 10.6206 27.7998 11.3317 26.8128 12.4559C25.8477 13.5543 25.3454 15.0305 25.4404 16.4896C26.9287 16.5049 28.3918 15.8131 29.3245 14.6531Z" fill="#040813"/>
</svg>
